<svg width="23" height="22" viewBox="0 0 23 22" fill="none" xmlns="http://www.w3.org/2000/svg">
<path d="M20.3007 5.61012H19.3222H17.7991C18.6905 5.05024 19.2758 4.1297 19.2758 3.08883C19.2758 1.38557 17.7141 0 15.7947 0C14.166 0 12.2375 2.79109 11.161 4.59504C10.0845 2.7914 8.15534 0 6.52698 0C4.60762 0 3.04586 1.38588 3.04586 3.08883C3.04586 4.1297 3.63091 5.05024 4.5226 5.61012H3.1493H2.02157C0.907036 5.61012 0 6.51685 0 7.63108V10.8353C0 11.6291 0.461038 12.3151 1.12835 12.6454V19.9784C1.12835 21.0933 2.03508 22 3.1493 22H19.3219C20.4367 22 21.3434 21.0933 21.3434 19.9784V12.5641C21.9288 12.2098 22.322 11.5689 22.322 10.8359V7.63138C22.3223 6.51715 21.4156 5.61012 20.3007 5.61012ZM2.02157 11.0149C1.92243 11.0149 1.8417 10.9345 1.8417 10.8356V7.63108C1.8417 7.53224 1.92243 7.45182 2.02157 7.45182H10.2398V11.0146L2.02157 11.0149ZM12.0818 7.45182H20.3007C20.3999 7.45182 20.4806 7.53224 20.4806 7.63108V10.8353C20.4806 10.9342 20.3999 11.0146 20.3007 11.0146H12.0818V7.45182ZM15.7944 1.8417C16.683 1.8417 17.4338 2.41293 17.4338 3.08883C17.4338 3.76474 16.683 4.33597 15.7944 4.33597H13.5199C14.4515 2.99061 15.4086 1.9215 15.7944 1.8417ZM6.5015 1.84016C6.90667 1.9212 7.86865 2.99092 8.80147 4.33658H6.52698C5.63836 4.33658 4.88756 3.76535 4.88756 3.08945C4.88756 2.41354 5.63836 1.8417 6.5015 1.84016ZM2.97004 19.979V12.8566H10.2401V20.1586H3.1493C3.05047 20.1589 2.97004 20.0782 2.97004 19.979ZM19.3222 20.1589H12.0818V12.8566H19.502V19.9787C19.502 20.0782 19.4213 20.1589 19.3222 20.1589Z" fill="#D8D8D8"/>
</svg>
