<svg width="22" height="21" viewBox="0 0 22 21" fill="none" xmlns="http://www.w3.org/2000/svg">
<path d="M17.2453 19.4463H3.57334V20.9999H17.2453V19.4463Z" fill="#D8D8D8"/>
<path d="M12.8692 6.93964H8.07888C7.64982 6.93964 7.30205 7.2874 7.30205 7.71647C7.30205 8.14554 7.64982 8.4933 8.07888 8.4933H12.8692C13.2983 8.4933 13.6461 8.14554 13.6461 7.71647C13.6461 7.2874 13.2983 6.93964 12.8692 6.93964Z" fill="#D8D8D8"/>
<path d="M16.4943 10.5647H8.07888C7.64982 10.5647 7.30205 10.9125 7.30205 11.3416C7.30205 11.7706 7.64982 12.1184 8.07888 12.1184H16.4944C16.9235 12.1184 17.2712 11.7706 17.2712 11.3416C17.2712 10.9125 16.9234 10.5647 16.4943 10.5647Z" fill="#D8D8D8"/>
<path d="M20.6716 0.0946075C20.3927 -0.0307242 20.0667 0.0187564 19.8378 0.220971L17.6624 2.14539L15.4845 0.197902C15.1896 -0.0659673 14.7437 -0.0659673 14.4488 0.197902L12.2737 2.14304L10.0983 0.197902C9.8034 -0.0659673 9.35779 -0.0659673 9.06284 0.197902L6.88491 2.14539L4.70958 0.220971C4.48095 0.019004 4.15468 -0.0304766 3.87579 0.0946075C3.59719 0.220187 3.418 0.497262 3.418 0.802812V14.6301H0.776834C0.347768 14.6301 0 14.9778 0 15.4069V17.2972C0 19.3389 1.66109 21 3.7028 21V19.4463C2.51765 19.4463 1.55363 18.4821 1.55363 17.2972V16.1837H13.7237V17.2972C13.7237 19.3389 15.3848 21 17.4265 21C19.4682 21 21.1293 19.3389 21.1293 17.2972V0.802771C21.1294 0.497221 20.9502 0.220187 20.6716 0.0946075ZM19.5757 17.2972C19.5757 18.4821 18.6115 19.4463 17.4266 19.4463C16.2417 19.4463 15.2774 18.4821 15.2774 17.2972V15.4069C15.2774 14.9778 14.9296 14.6301 14.5006 14.6301H4.97163V2.52704L6.37327 3.76711C6.66846 4.02813 7.11226 4.02681 7.40563 3.76426L9.58072 1.81913L11.7558 3.76402C12.0507 4.02789 12.4966 4.02789 12.7916 3.76402L14.9669 1.81888L17.142 3.76402C17.4356 4.02657 17.8794 4.0276 18.1743 3.76686L19.5757 2.52708V17.2972Z" fill="#D8D8D8"/>
</svg>
