<svg width="18" height="15" viewBox="0 0 18 15" fill="none" xmlns="http://www.w3.org/2000/svg">
<path fill-rule="evenodd" clip-rule="evenodd" d="M8.99929 5.07685C7.80228 5.07685 6.82937 6.05066 6.82937 7.24766C6.82937 8.44377 7.80228 9.41668 8.99929 9.41668C10.1963 9.41668 11.1701 8.44377 11.1701 7.24766C11.1701 6.05066 10.1963 5.07685 8.99929 5.07685ZM8.99936 10.7668C7.05804 10.7668 5.47943 9.18817 5.47943 7.24775C5.47943 5.30644 7.05804 3.72693 8.99936 3.72693C10.9407 3.72693 12.5202 5.30644 12.5202 7.24775C12.5202 9.18817 10.9407 10.7668 8.99936 10.7668Z" fill="#001833"/>
<mask id="mask0" mask-type="alpha" maskUnits="userSpaceOnUse" x="0" y="0" width="18" height="15">
<path fill-rule="evenodd" clip-rule="evenodd" d="M0 0H18V14.4946H0V0Z" fill="white"/>
</mask>
<g mask="url(#mask0)">
<path fill-rule="evenodd" clip-rule="evenodd" d="M1.41274 7.24698C3.08675 10.9451 5.90647 13.1438 8.99979 13.1447C12.0931 13.1438 14.9128 10.9451 16.5869 7.24698C14.9128 3.54975 12.0931 1.35103 8.99979 1.35013C5.90737 1.35103 3.08675 3.54975 1.41274 7.24698ZM9.00164 14.4949H8.99804H8.99714C5.27471 14.4922 1.93209 11.8831 0.0546754 7.51357C-0.0182251 7.34346 -0.0182251 7.15086 0.0546754 6.98076C1.93209 2.61213 5.27561 0.00300881 8.99714 0.000308794C8.99894 -0.000591213 8.99894 -0.000591213 8.99984 0.000308794C9.00164 -0.000591213 9.00164 -0.000591213 9.00254 0.000308794C12.725 0.00300881 16.0676 2.61213 17.945 6.98076C18.0188 7.15086 18.0188 7.34346 17.945 7.51357C16.0685 11.8831 12.725 14.4922 9.00254 14.4949H9.00164Z" fill="#001833"/>
</g>
</svg>
