<svg width="28" height="27" viewBox="0 0 28 27" fill="none" xmlns="http://www.w3.org/2000/svg">
<path d="M24.3654 14.0813H22.4307L22.5329 11.9359C22.5444 11.6928 22.4559 11.4554 22.2879 11.2793C22.12 11.1032 21.8871 11.0035 21.6438 11.0035H2.06266C1.81921 11.0035 1.58645 11.1032 1.41852 11.2793C1.25059 11.4555 1.16202 11.6928 1.1736 11.9359L1.5688 20.2263C1.66641 22.275 2.92131 23.9988 4.68444 24.782H0.890099C0.398616 24.782 0 25.1806 0 25.6721C0 26.1635 0.398616 26.5622 0.890099 26.5622H22.9419C23.4333 26.5622 23.832 26.1635 23.832 25.6721C23.832 25.1806 23.4333 24.782 22.9419 24.782H19.0222C20.4514 24.147 21.5456 22.8939 21.961 21.3505H24.3654C26.3695 21.3505 28 19.72 28 17.7159C28 15.7118 26.3695 14.0813 24.3654 14.0813ZM16.8853 23.4542H6.82128C4.96156 23.4542 3.43549 21.9991 3.34692 20.1414L2.99622 12.7834H20.7102L20.3597 20.1414C20.2711 21.9991 18.745 23.4542 16.8853 23.4542ZM24.3654 19.5703H22.1691L22.3459 15.8596C22.3591 15.8602 22.3722 15.8615 22.3856 15.8615H24.3654C25.388 15.8615 26.2198 16.6933 26.2198 17.7159C26.2198 18.7385 25.388 19.5703 24.3654 19.5703Z" fill="#D8D8D8"/>
<path d="M9.23774 9.5445C9.37986 9.62847 9.53578 9.66852 9.68977 9.66852C9.99418 9.66852 10.2907 9.51216 10.4569 9.23119C10.7071 8.80795 10.5668 8.26217 10.1436 8.01205C9.64867 7.7195 9.30658 7.17981 9.20511 6.53152C9.09948 5.85652 9.27587 5.1842 9.67656 4.73337C9.68012 4.72936 9.68368 4.72536 9.6871 4.7212C9.78397 4.60816 9.88084 4.49705 9.97682 4.38682C10.8002 3.44124 11.6517 2.46376 11.8962 1.04109C11.9795 0.556576 11.6542 0.0962467 11.1699 0.0130224C10.6853 -0.0702019 10.225 0.254833 10.1418 0.739343C9.98172 1.67039 9.35731 2.38736 8.6344 3.21753C8.53694 3.32938 8.43873 3.44228 8.34052 3.5568C7.59417 4.40062 7.25994 5.61471 7.44642 6.80641C7.63008 7.98223 8.28311 8.98018 9.23774 9.5445Z" fill="#D8D8D8"/>
<path d="M12.0002 7.53451C12.2941 8.29124 12.8183 8.98433 13.4765 9.48605C13.6377 9.60888 13.8272 9.66837 14.0155 9.66837C14.2837 9.66837 14.549 9.54762 14.724 9.31782C15.0221 8.92692 14.9467 8.36838 14.5556 8.07035C14.1604 7.76905 13.8338 7.33898 13.6596 6.89022C13.3126 5.99671 13.6414 5.10632 14.759 3.91284C15.5514 3.06666 16.0578 2.07004 16.2235 1.03041C16.3008 0.545006 15.9702 0.0886815 15.4846 0.0112429C14.9992 -0.0661958 14.5429 0.264624 14.4654 0.750173C14.3543 1.44727 14.0159 2.10194 13.4596 2.69608C12.8759 3.3193 11.0998 5.21595 12.0002 7.53451Z" fill="#D8D8D8"/>
</svg>
