<svg width="16" height="19" viewBox="0 0 16 19" fill="none" xmlns="http://www.w3.org/2000/svg">
<path fill-rule="evenodd" clip-rule="evenodd" d="M11.7169 7.43437C11.3416 7.43437 11.0369 7.12973 11.0369 6.75438V4.80779C11.0369 2.90743 9.4911 1.36159 7.59074 1.36159H7.57624C6.6578 1.36159 5.79738 1.71518 5.14731 2.35981C4.4927 3.00717 4.13094 3.87121 4.12732 4.79237V6.75438C4.12732 7.12973 3.82268 7.43437 3.44733 7.43437C3.07197 7.43437 2.76733 7.12973 2.76733 6.75438V4.80779C2.77277 3.5022 3.27778 2.29726 4.18897 1.39423C5.10107 0.49029 6.30511 -0.0328511 7.59346 0.00160185C10.2409 0.00160185 12.3969 2.15763 12.3969 4.80779V6.75438C12.3969 7.12973 12.0923 7.43437 11.7169 7.43437Z" fill="#001833"/>
<path fill-rule="evenodd" clip-rule="evenodd" d="M4.11811 7.37009C2.59674 7.37009 1.36006 8.60677 1.36006 10.1281V14.0168C1.36006 15.5382 2.59674 16.7748 4.11811 16.7748H11.0459C12.5663 16.7748 13.8039 15.5382 13.8039 14.0168V10.1281C13.8039 8.60677 12.5663 7.37009 11.0459 7.37009H4.11811ZM11.0458 18.1346H4.11803C1.84686 18.1346 0 16.2877 0 14.0166V10.1279C0 7.85675 1.84686 6.00989 4.11803 6.00989H11.0458C13.317 6.00989 15.1638 7.85675 15.1638 10.1279V14.0166C15.1638 16.2877 13.317 18.1346 11.0458 18.1346Z" fill="#001833"/>
<path fill-rule="evenodd" clip-rule="evenodd" d="M7.58118 13.759C7.20582 13.759 6.90118 13.4544 6.90118 13.0791V11.0654C6.90118 10.69 7.20582 10.3854 7.58118 10.3854C7.95653 10.3854 8.26117 10.69 8.26117 11.0654V13.0791C8.26117 13.4544 7.95653 13.759 7.58118 13.759Z" fill="#001833"/>
</svg>
