<svg width="21" height="21" viewBox="0 0 21 21" fill="none" xmlns="http://www.w3.org/2000/svg">
<path d="M20.9617 5.01301L19.4617 0.513017C19.3597 0.206587 19.073 -8.78626e-05 18.75 2.80214e-08H2.25C1.92704 -8.78626e-05 1.6403 0.206587 1.53826 0.513017L0.0382324 5.01301C0.0151172 5.08306 0.00219726 5.15606 0 5.22975C0 5.23727 0 5.2425 0 5.25001V6.00003C0.00272461 7.17512 0.558413 8.28043 1.49998 8.98351C1.49998 8.98954 1.49998 8.99402 1.49998 8.99999V18.75C1.49998 19.9926 2.50734 21 3.74998 21H17.25C18.4926 21 19.5 19.9926 19.5 18.75V8.99999C19.5 8.99397 19.5 8.98949 19.5 8.98351C20.4415 8.28043 20.9973 7.17512 21 6.00003V5.25001C21 5.2425 21 5.23727 21 5.22975C20.9978 5.15601 20.9849 5.08302 20.9617 5.01301ZM15.75 1.49998H18.2093L19.2098 4.5H15.75V1.49998ZM11.25 1.49998H14.25V4.5H11.25V1.49998ZM6.75 1.49998H9.75001V4.5H6.75V1.49998ZM2.79075 1.49998H5.25001V4.5H1.79024L2.79075 1.49998ZM12 19.5H8.99999V13.5H12V19.5ZM18 18.75C18 19.1642 17.6642 19.5 17.25 19.5H13.5V12.75C13.5 12.3358 13.1642 12 12.75 12H8.24998C7.83575 12 7.49997 12.3358 7.49997 12.75V19.5H3.74998C3.33575 19.5 2.99997 19.1642 2.99997 18.75V9.67499C4.0525 9.89107 5.147 9.63988 5.99998 8.9865C7.33882 9.96982 9.16114 9.96982 10.5 8.9865C11.8388 9.96982 13.6611 9.96982 15 8.9865C15.853 9.63993 16.9475 9.89107 18 9.67499V18.75ZM17.25 8.24998C16.6014 8.24958 15.9855 7.96508 15.5647 7.47149C15.2922 7.15961 14.8183 7.12771 14.5065 7.40025C14.4812 7.42236 14.4573 7.44618 14.4352 7.47149C13.6013 8.40225 12.1708 8.48069 11.24 7.64679C11.1784 7.59159 11.1199 7.5331 11.0647 7.47149C10.7712 7.15961 10.2804 7.14467 9.9685 7.43822C9.95708 7.44899 9.94596 7.46006 9.93524 7.47149C9.10133 8.40225 7.67078 8.48069 6.74002 7.64679C6.67841 7.59159 6.61992 7.5331 6.56472 7.47149C6.27121 7.15961 5.78039 7.14467 5.46851 7.43822C5.45708 7.44899 5.44596 7.46006 5.43524 7.47149C5.01446 7.96508 4.39862 8.24958 3.74998 8.24998C2.50734 8.24998 1.49998 7.24262 1.49998 5.99998H19.5C19.5 7.24262 18.4926 8.24998 17.25 8.24998Z" fill="#324A59"/>
</svg>
