<svg width="121" height="133" viewBox="0 0 121 133" fill="none" xmlns="http://www.w3.org/2000/svg">
<path d="M97.6631 41.7186H4.79534C2.14676 41.7186 0 43.8654 0 46.514V62.0186C0 90.2226 23.0172 113.168 51.309 113.168C79.513 113.168 102.457 90.2213 102.458 62.0186V46.514C102.458 43.8654 100.312 41.7186 97.6631 41.7186ZM92.868 62.0186C92.868 84.9352 74.2241 103.577 51.3093 103.577C28.305 103.577 9.59068 84.9349 9.59068 62.0186V51.3093H92.868V62.0186Z" fill="#FFFAF7"/>
<path d="M93.1877 122.439H9.75042C7.10184 122.439 4.95508 124.585 4.95508 127.234C4.95508 129.883 7.10184 132.029 9.75042 132.029H93.1877C95.8362 132.029 97.983 129.882 97.983 127.234C97.983 124.585 95.8362 122.439 93.1877 122.439Z" fill="#E4D5C9"/>
<path d="M30.0503 11.9882C27.4018 11.9882 25.255 14.1349 25.255 16.7835V29.8905C25.255 32.5391 27.4018 34.6858 30.0503 34.6858C32.6974 34.6858 34.8457 32.5391 34.8457 29.8905V16.7835C34.8454 14.1349 32.6989 11.9882 30.0503 11.9882Z" fill="#E4D5C9"/>
<path d="M51.4689 0C48.8203 0 46.6736 2.14676 46.6736 4.79534V29.411C46.6736 32.0596 48.8203 34.2064 51.4689 34.2064C54.1175 34.2064 56.2643 32.0596 56.2643 29.411V4.79534C56.2643 2.14676 54.1175 0 51.4689 0Z" fill="#E4D5C9"/>
<path d="M72.8864 11.9882C70.2378 11.9882 68.0911 14.1349 68.0911 16.7835V29.4111C68.0911 32.0597 70.2378 34.2064 72.8864 34.2064C75.5365 34.2064 77.6817 32.0597 77.6817 29.4111V16.7835C77.6815 14.1349 75.535 11.9882 72.8864 11.9882Z" fill="#E4D5C9"/>
<path d="M104.055 54.6641H97.6616V64.2545H104.055C108.112 64.2545 111.41 67.5537 111.41 71.6071C111.41 75.6639 108.11 78.9615 104.055 78.9615H91.9072V88.5522H104.055C113.398 88.5522 121 80.9502 121 71.6074C121 62.2645 113.398 54.6641 104.055 54.6641Z" fill="#FFFAF6"/>
</svg>
