<svg width="21" height="18" viewBox="0 0 21 18" fill="none" xmlns="http://www.w3.org/2000/svg">
<path d="M8.81249 2H12.0609C12.5098 2 12.873 2.2013 12.873 2.45C12.873 2.6987 12.5098 2.9 12.0609 2.9H8.81249C8.36367 2.9 8.00038 2.6987 8.00038 2.45C8.00038 2.2013 8.36367 2 8.81249 2Z" fill="#001833"/>
<path d="M6.30054 0H14.7005C15.8583 0 16.8005 0.807609 16.8005 1.8V16.2C16.8005 17.1924 15.8583 18 14.7005 18H6.30054C5.14275 18 4.20054 17.1924 4.20054 16.2V1.8C4.20054 0.807609 5.14275 0 6.30054 0ZM5.25054 16.2C5.25054 16.6971 5.72058 17.1 6.30054 17.1H14.7005C15.2805 17.1 15.7505 16.6971 15.7505 16.2V1.8C15.7505 1.30289 15.2805 0.9 14.7005 0.9H6.30054C5.72058 0.9 5.25054 1.30289 5.25054 1.8V16.2Z" fill="#001833"/>
<path d="M10.5008 15.4997C9.92088 15.4997 9.45078 15.0968 9.45078 14.5997C9.45078 14.1027 9.92088 13.6997 10.5008 13.6997C11.0807 13.6997 11.5508 14.1027 11.5508 14.5997C11.5508 15.0968 11.0807 15.4997 10.5008 15.4997Z" fill="#001833"/>
</svg>
